<svg id="cirlre" xmlns="http://www.w3.org/2000/svg" width="594.066" height="599" viewBox="0 0 594.066 599">
  <path id="Path_10" data-name="Path 10" d="M255.066,267a24,24,0,1,0-23.9,24A24.053,24.053,0,0,0,255.066,267Z" fill="#4e67eb"/>
  <path id="Path_11" data-name="Path 11" d="M594.066,591a8,8,0,1,0-8,8A8.053,8.053,0,0,0,594.066,591Z" fill="#4e67eb"/>
  <path id="Path_12" data-name="Path 12" d="M467.066,386a4,4,0,1,0-4,4A4.08,4.08,0,0,0,467.066,386Z" fill="#4e67eb"/>
  <path id="Path_13" data-name="Path 13" d="M555.066,16a16,16,0,1,0-16,16C547.955,31.407,555.066,24.889,555.066,16Z" fill="#4e67eb"/>
  <path id="Path_14" data-name="Path 14" d="M16,161.1a8,8,0,1,0-8,8C12.444,168.8,16,165.539,16,161.1Z" fill="#4e67eb"/>
  <path id="Path_15" data-name="Path 15" d="M52.066,510a4,4,0,1,1-4,4A4,4,0,0,1,52.066,510Z" fill="#4e67eb"/>
</svg>
